HIERARCHY
ROOT root     
{
	OFFSET 0.0000 0.0000 0.0000
	CHANNELS 6 Xposition Yposition Zposition Zrotation Yrotation Xrotation
	JOINT pelvis   
	{
		OFFSET 0.0000 0.0000 0.0000
		CHANNELS 3 Zrotation Yrotation Xrotation
		JOINT thorax   
		{
			OFFSET 0.0000 23.0750 -5.0000
			CHANNELS 3 Zrotation Yrotation Xrotation
			JOINT rclavicle
			{
				OFFSET 0.0000 28.0009 0.0000
				CHANNELS 3 Zrotation Yrotation Xrotation
				JOINT rhumerus 
				{
					OFFSET -18.5725 5.5939 0.0000
					CHANNELS 3 Zrotation Yrotation Xrotation
					JOINT rradius  
					{
						OFFSET -24.8459 0.0000 0.0000
						CHANNELS 3 Zrotation Yrotation Xrotation
						JOINT rhand    
						{
							OFFSET -24.5477 0.0000 0.0000
							CHANNELS 3 Zrotation Yrotation Xrotation
							End Site
							{
								OFFSET -8.1826 0.0000 0.0000
							}
						}
					}
				}
			}
			JOINT lclavicle
			{
				OFFSET 0.0000 28.0009 0.0000
				CHANNELS 3 Zrotation Yrotation Xrotation
				JOINT lhumerus 
				{
					OFFSET 18.5725 5.5939 0.0000
					CHANNELS 3 Zrotation Yrotation Xrotation
					JOINT lradius  
					{
						OFFSET 24.8459 0.0000 0.0000
						CHANNELS 3 Zrotation Yrotation Xrotation
						JOINT lhand    
						{
							OFFSET 24.5477 0.0000 0.0000
							CHANNELS 3 Zrotation Yrotation Xrotation
							End Site
							{
								OFFSET 8.1826 0.0000 0.0000
							}
						}
					}
				}
			}
			JOINT head     
			{
				OFFSET 0.0000 35.2030 0.0000
				CHANNELS 3 Zrotation Yrotation Xrotation
				End Site
				{
					OFFSET 0.0000 11.7343 0.0000
				}
			}
		}
		JOINT rfemur   
		{
			OFFSET -8.2817 0.0000 0.0000
			CHANNELS 3 Zrotation Yrotation Xrotation
			JOINT rtibia   
			{
				OFFSET 0.0000 -43.3627 0.0000
				CHANNELS 3 Zrotation Yrotation Xrotation
				JOINT rfoot    
				{
					OFFSET 0.0000 -38.2947 0.0000
					CHANNELS 3 Zrotation Yrotation Xrotation
					JOINT rtoes    
					{
						OFFSET 0.0000 0.0000 16.6054
						CHANNELS 3 Zrotation Yrotation Xrotation
						End Site
						{
							OFFSET 0.0000 0.0000 5.5351
						}
					}
				}
			}
		}
		JOINT lfemur   
		{
			OFFSET 8.2817 0.0000 0.0000
			CHANNELS 3 Zrotation Yrotation Xrotation
			JOINT ltibia   
			{
				OFFSET 0.0000 -43.3627 0.0000
				CHANNELS 3 Zrotation Yrotation Xrotation
				JOINT lfoot    
				{
					OFFSET 0.0000 -38.2947 0.0000
					CHANNELS 3 Zrotation Yrotation Xrotation
					JOINT ltoes    
					{
						OFFSET 0.0000 0.0000 16.6054
						CHANNELS 3 Zrotation Yrotation Xrotation
						End Site
						{
							OFFSET 0.0000 0.0000 5.5351
						}
					}
				}
			}
		}
	}
}
MOTION
Frames: 16
Frame Time: .0333333
-122.68 83.418 -3.8411 22.8266 85.122 48.5253 0 -0 0 -11.6161 4.2672 -8.49289 22.8939 -6.60232 -2.18753e-05 31.2616 24.7412 11.747 -180 81.1127 -180 -2.8253 6.66757 -0.1646 -20.7498 19.3686 -0.000149747 -31.2192 9.4098 -33.5427 0 -65.2976 0 14.9391 0.761598 0.0999033 5.12978 2.77656 -15.633 -3.29325 -3.70675 -0.272898 -0 -0 21.5321 5.55898e-05 10.9275 30.9802 5.6754 -4.8816e-05 -86.7388 -4.30965 -1.01579 -51.2705 -0 -0 29.6672 1.983e-06 6.52788 5.40901 0.617998 -8.50109e-07 -20.9997 
-121.48 83.223 -3.8895 22.3714 84.9579 47.9832 0 -0 0 -12.1579 4.26043 -8.63982 23.1371 -6.68406 2.41619e-05 31.2367 24.5007 12.1664 -180 80.7794 -180 -2.56109 6.703 -0.15 -20.7513 19.4243 0.000138324 -31.4004 9.56328 -33.4475 5.41727e-07 -64.9629 -8.50937e-07 14.9912 0.762896 0.100405 6.06575 2.88568 -15.5161 -3.71802 -4.20834 -0.374503 -0 -0 22.855 0.000155232 12.1539 32.0542 6.52024 2.61773e-05 -85.8872 -4.37868 -1.1042 -51.4228 -0 -0 31.7241 1.09322e-06 6.91154 4.88375 0.591298 -1.7433e-06 -19.3516 
-120.3 83.049 -3.9397 21.99 84.7843 47.528 0 -0 0 -12.6709 4.24827 -8.78098 23.367 -6.77072 -1.7095e-05 31.2704 24.262 12.608 -180 80.5131 -180 -2.28834 6.72907 -0.134597 -20.7935 19.4576 3.27573e-05 -31.5919 9.62847 -33.3197 0 -64.5407 0 15.0351 0.783503 0.103405 6.95847 2.9622 -15.3793 -4.13571 -4.71582 -0.605095 -0 -0 24.348 0.00010158 13.2796 33.1604 7.35572 -3.82736e-07 -84.4306 -4.50105 -1.1358 -51.4819 -0 -0 33.609 -9.58601e-07 7.28125 4.11888 0.525796 1.44958e-07 -17.9926 
-119.14 82.901 -3.9925 21.6267 84.6074 47.0996 0 -0 0 -13.1542 4.23422 -8.91929 23.5828 -6.86144 5.7784e-05 31.3601 24.027 13.0751 -180 80.3302 -180 -2.01188 6.74385 -0.118598 -20.8685 19.473 0.000187054 -31.8075 9.59881 -33.1601 0 -64.0306 0 15.0812 0.829903 0.1099 7.80263 3.00796 -15.2181 -4.54343 -5.22205 -0.965511 -0 -0 26.0009 4.05008e-05 14.2212 34.2742 8.12235 1.78602e-05 -82.3556 -4.668 -1.11688 -51.43 -0 -0 35.2804 1.62671e-06 7.62398 3.13744 0.419699 -6.7185e-07 -16.971 
-117.99 82.783 -4.0475 21.1803 84.4275 46.5926 0 -0 0 -13.5958 4.22101 -9.05773 23.7809 -6.95403 4.50454e-06 31.5013 23.8025 13.5733 -180 80.2404 -180 -1.73693 6.74567 -0.102402 -20.9818 19.4683 4.99744e-05 -32.0559 9.49279 -32.9701 0 -63.4453 0 15.1407 0.911192 0.121102 8.59267 3.0268 -15.0225 -4.92971 -5.71244 -1.44761 -0 -0 27.7942 -0.000201876 14.8752 35.3642 8.74009 -0.000118954 -79.7005 -4.86482 -1.04957 -51.2571 -0 -0 36.7109 -4.04222e-06 7.92589 1.97878 0.275399 4.00337e-07 -16.3031 
-116.86 82.695 -4.1069 20.6757 84.2371 46.0266 0 -0 0 -13.9981 4.20745 -9.19446 23.964 -7.04779 -4.09741e-05 31.6854 23.5918 14.1036 -180 80.236 -180 -1.46905 6.73442 -0.0864033 -21.1187 19.4573 0.000149464 -32.3528 9.3013 -32.743 -7.96942e-07 -62.7902 4.86368e-07 15.2182 1.0274 0.137202 9.32961 3.02393 -14.787 -5.30088 -6.18877 -2.03711 -0 -0 29.7038 0.000166689 15.1568 36.387 9.12903 -3.4028e-05 -76.5921 -5.08672 -0.945466 -50.9521 -0 -0 37.8856 6.06458e-07 8.18446 0.699505 0.100601 -4.2942e-07 -15.9731 
-115.73 82.638 -4.1667 19.9657 84.0222 45.2617 0 -0 0 -14.3325 4.19178 -9.33274 24.1269 -7.13886 4.47245e-05 31.9028 23.3989 14.6691 -180 80.3371 -180 -1.21314 6.71004 -0.0711019 -21.283 19.4507 -0.000153726 -32.7061 9.03204 -32.4739 0 -62.0811 0 15.3151 1.17695 0.158206 10.0078 3.00617 -14.5042 -5.62654 -6.62503 -2.71364 -0 -0 31.6833 -5.65498e-05 14.958 37.2949 9.19535 -7.67672e-05 -73.2238 -5.30722 -0.801212 -50.5233 -0 -0 38.8118 -2.38098e-07 8.3883 -0.637998 -0.0941009 -5.68729e-07 -15.9536 
-114.61 82.613 -4.2373 19.3402 83.7871 44.5618 0 -0 0 -14.6472 4.16739 -9.46423 24.2857 -7.22939 2.57219e-05 32.1299 23.2312 15.2651 -180 80.5318 -180 -0.976805 6.67092 -0.0569005 -21.4748 19.4178 5.40443e-05 -33.0992 8.75022 -32.1544 0 -61.3652 0 15.434 1.37142 0.185812 10.642 2.97799 -14.1699 -5.96306 -7.05864 -3.45749 -0 -0 33.7174 0.000100938 14.2604 38.037 8.90045 -3.68756e-05 -69.8479 -5.55037 -0.654589 -49.9456 -0 -0 39.474 2.32524e-06 8.56795 -1.95626 -0.294703 -7.3436e-07 -16.1778 
-113.49 82.618 -4.3064 18.4716 83.5628 43.611 0 -0 0 -14.8739 4.12825 -9.59583 24.4253 -7.31389 -6.462e-05 32.3594 23.0839 15.8889 -180 80.8144 -180 -0.7622 6.62213 -0.0441001 -21.6807 19.4174 -0.000184081 -33.5636 8.3892 -31.7737 0 -60.6272 0 15.56 1.58138 0.216105 11.2224 2.94811 -13.7805 -6.236 -7.43534 -4.24839 -0 -0 35.7443 -0.000191706 12.986 38.5596 8.18027 -4.03099e-05 -66.6981 -5.76356 -0.486282 -49.2569 -0 -0 39.9179 3.24638e-06 8.70528 -3.20099 -0.4899 -7.42645e-07 -16.582 
-112.37 82.653 -4.3848 17.7052 83.3184 42.7445 0 -0 0 -15.0676 4.06598 -9.71798 24.5638 -7.39715 -1.99813e-05 32.5677 22.9653 16.534 -180 81.1856 -180 -0.578498 6.56262 -0.0331999 -21.9096 19.3954 7.67056e-05 -34.066 8.04613 -31.3268 6.02067e-07 -59.941 -1.04407e-06 15.6843 1.82014 0.250691 11.7658 2.91816 -13.3361 -6.50548 -7.79251 -5.0665 -0 -0 37.7484 2.74791e-05 11.1941 38.8025 7.06909 1.62422e-05 -63.9554 -5.97659 -0.33805 -48.4391 -0 -0 40.1379 3.73561e-06 8.84085 -4.30976 -0.669695 -3.56318e-06 -17.072 
-111.26 82.716 -4.4608 16.7492 83.1015 41.6811 0 -0 0 -15.1682 3.97219 -9.84199 24.686 -7.47339 -3.50231e-05 32.7494 22.8622 17.1893 -180 81.6271 -180 -0.423596 6.49863 -0.0239997 -22.1554 19.4023 9.55473e-05 -34.6283 7.66229 -30.7978 0 -59.2903 0 15.7901 2.0566 0.285201 12.2661 2.89431 -12.84 -6.70434 -8.09262 -5.90794 -0 -0 39.6844 -5.90925e-05 8.91139 38.7147 5.60096 -1.6932e-05 -61.6795 -6.14251 -0.194166 -47.5398 -0 -0 40.1879 -6.77742e-06 8.96424 -5.25629 -0.827899 3.69443e-06 -17.558 
-110.15 82.805 -4.5415 15.881 82.8871 40.6974 0 -0 0 -15.216 3.83979 -9.95957 24.8061 -7.54892 -2.9442e-05 32.8861 22.7771 17.8441 -180 82.1219 -180 -0.304099 6.43193 -0.0171001 -22.417 19.4005 0.000149154 -35.2286 7.30081 -30.1884 0 -58.7349 0 15.8591 2.29164 0.319216 12.7404 2.87566 -12.296 -6.87495 -8.3633 -6.75954 -0 -0 41.5396 -1.53235e-05 6.27686 38.2491 3.89545 -3.29336e-05 -59.8271 -6.28516 -0.0853368 -46.5537 -0 -0 40.07 4.25619e-06 9.10705 -6.01546 -0.962394 4.79451e-06 -17.9675 
-109.04 82.919 -4.6236 15.0255 82.7087 39.7225 0 -0 0 -15.1979 3.66371 -10.0741 24.9187 -7.62423 1.18654e-05 32.9719 22.6994 18.4832 -180 82.6584 -180 -0.219195 6.36645 -0.0121997 -22.6931 19.3981 3.1932e-05 -35.8659 6.95205 -29.4911 0 -58.287 0 15.8723 2.50718 0.349598 13.1903 2.86143 -11.7125 -6.99961 -8.60051 -7.62177 -0 -0 43.292 1.04375e-06 3.43123 37.3798 2.08464 3.0211e-05 -58.2745 -6.39356 -0.0121831 -45.5077 -0 -0 39.816 -4.82606e-06 9.27124 -6.59049 -1.07329 -3.31811e-06 -18.2531 
-107.94 83.056 -4.707 14.2435 82.5624 38.8215 0 -0 0 -15.1218 3.44221 -10.1831 25.0317 -7.70423 1.31906e-05 32.9976 22.6284 19.0927 -180 83.2129 -180 -0.170196 6.3054 -0.00939968 -22.9808 19.3747 0.000103444 -36.5315 6.64508 -28.7088 0 -57.9747 0 15.8141 2.69525 0.374389 13.6257 2.84866 -11.1013 -7.08368 -8.81084 -8.49146 -0 -0 44.9278 6.98356e-06 0.542402 36.1166 0.319705 -2.96128e-06 -56.89 -6.47283 0.0197638 -44.414 -0 -0 39.4416 1.15029e-05 9.46122 -6.99618 -1.16296 -1.34026e-05 -18.3951 
-106.86 83.214 -4.7875 13.4439 82.473 37.9145 0 -0 0 -14.9739 3.17598 -10.2931 25.1303 -7.78646 -1.39655e-05 32.9714 22.5393 19.653 -180 83.776 -180 -0.148601 6.25395 -0.00810013 -23.2721 19.3588 0.000160803 -37.2274 6.32679 -27.8367 0 -57.7856 0 15.6742 2.83628 0.390509 14.047 2.83413 -10.4723 -7.10616 -8.99048 -9.37993 -0 -0 46.4395 6.70762e-06 -2.23345 34.4948 -1.26531 -5.1447e-06 -55.4218 -6.51276 0.0218413 -43.3025 -0 -0 38.9754 2.74987e-06 9.66367 -7.26232 -1.2331 1.05718e-05 -18.4035 
-105.78 83.39 -4.8647 12.6448 82.4366 37.0237 0 -0 0 -14.7625 2.87005 -10.4022 25.2215 -7.87596 9.53002e-06 32.8893 22.4273 20.1481 -180 84.3105 -180 -0.152898 6.21345 -0.00829999 -23.5705 19.3232 -1.82606e-05 -37.9389 6.02652 -26.8833 0 -57.736 0 15.4448 2.92885 0.397212 14.4603 2.81212 -9.83788 -7.07244 -9.14435 -10.287 -0 -0 47.8184 -1.24188e-06 -4.76134 32.5901 -2.5687 6.58672e-06 -53.7883 -6.52085 -0.000789661 -42.1821 -0 -0 38.4261 7.33199e-06 9.8684 -7.42041 -1.28703 -4.6884e-06 -18.3152 
